<svg viewBox="0 0 676 252" xmlns="http://www.w3.org/2000/svg" role="img" aria-label="일별 Full GC 발생 횟수 차트">
  <rect width="676" height="252" fill="#f9fafb" rx="6"/>
  <line x1="46" y1="180.0" x2="666" y2="180.0" stroke="#dde" strokeWidth="1" strokeDasharray="3,3"/>
  <text x="42" y="184.0" text-anchor="end" font-size="10" fill="#888">0</text>
  <line x1="46" y1="143.6" x2="666" y2="143.6" stroke="#dde" strokeWidth="1" strokeDasharray="3,3"/>
  <text x="42" y="147.6" text-anchor="end" font-size="10" fill="#888">50</text>
  <line x1="46" y1="107.3" x2="666" y2="107.3" stroke="#dde" strokeWidth="1" strokeDasharray="3,3"/>
  <text x="42" y="111.3" text-anchor="end" font-size="10" fill="#888">100</text>
  <line x1="46" y1="70.9" x2="666" y2="70.9" stroke="#dde" strokeWidth="1" strokeDasharray="3,3"/>
  <text x="42" y="74.9" text-anchor="end" font-size="10" fill="#888">150</text>
  <line x1="46" y1="34.5" x2="666" y2="34.5" stroke="#dde" strokeWidth="1" strokeDasharray="3,3"/>
  <text x="42" y="38.5" text-anchor="end" font-size="10" fill="#888">200</text>
  <rect x="51.8" y="171.3" width="29.8" height="8.7" fill="#3d80b6" rx="2"/>
  <text x="66.7" y="167.3" text-anchor="middle" font-size="9" fill="#555">12</text>
  <text x="66.7" y="194.0" text-anchor="middle" font-size="9" fill="#555">12/02</text>
  <text x="66.7" y="205.0" text-anchor="middle" font-size="9" fill="#555">화</text>
  <rect x="93.1" y="41.1" width="29.8" height="138.9" fill="#3d80b6" rx="2"/>
  <text x="108.0" y="37.1" text-anchor="middle" font-size="9" fill="#555">191</text>
  <text x="108.0" y="194.0" text-anchor="middle" font-size="9" fill="#555">12/03</text>
  <text x="108.0" y="205.0" text-anchor="middle" font-size="9" fill="#555">수</text>
  <rect x="134.5" y="50.5" width="29.8" height="129.5" fill="#3d80b6" rx="2"/>
  <text x="149.3" y="46.5" text-anchor="middle" font-size="9" fill="#555">178</text>
  <text x="149.3" y="194.0" text-anchor="middle" font-size="9" fill="#555">12/04</text>
  <text x="149.3" y="205.0" text-anchor="middle" font-size="9" fill="#555">목</text>
  <rect x="175.8" y="62.2" width="29.8" height="117.8" fill="#3d80b6" rx="2"/>
  <text x="190.7" y="58.2" text-anchor="middle" font-size="9" fill="#555">162</text>
  <text x="190.7" y="194.0" text-anchor="middle" font-size="9" fill="#555">12/05</text>
  <text x="190.7" y="205.0" text-anchor="middle" font-size="9" fill="#555">금</text>
  <rect x="217.1" y="146.5" width="29.8" height="33.5" fill="#b0c8e0" rx="2"/>
  <text x="232.0" y="142.5" text-anchor="middle" font-size="9" fill="#7a9ab8">46</text>
  <text x="232.0" y="194.0" text-anchor="middle" font-size="9" fill="#7a9ab8">12/06</text>
  <text x="232.0" y="205.0" text-anchor="middle" font-size="9" fill="#7a9ab8">토</text>
  <rect x="258.5" y="150.2" width="29.8" height="29.8" fill="#b0c8e0" rx="2"/>
  <text x="273.3" y="146.2" text-anchor="middle" font-size="9" fill="#7a9ab8">41</text>
  <text x="273.3" y="194.0" text-anchor="middle" font-size="9" fill="#7a9ab8">12/07</text>
  <text x="273.3" y="205.0" text-anchor="middle" font-size="9" fill="#7a9ab8">일</text>
  <rect x="299.8" y="30.2" width="29.8" height="149.8" fill="#3d80b6" rx="2"/>
  <text x="314.7" y="26.2" text-anchor="middle" font-size="9" fill="#555">206</text>
  <text x="314.7" y="194.0" text-anchor="middle" font-size="9" fill="#555">12/08</text>
  <text x="314.7" y="205.0" text-anchor="middle" font-size="9" fill="#555">월</text>
  <rect x="341.1" y="31.6" width="29.8" height="148.4" fill="#3d80b6" rx="2"/>
  <text x="356.0" y="27.6" text-anchor="middle" font-size="9" fill="#555">204</text>
  <text x="356.0" y="194.0" text-anchor="middle" font-size="9" fill="#555">12/09</text>
  <text x="356.0" y="205.0" text-anchor="middle" font-size="9" fill="#555">화</text>
  <rect x="382.5" y="38.2" width="29.8" height="141.8" fill="#3d80b6" rx="2"/>
  <text x="397.3" y="34.2" text-anchor="middle" font-size="9" fill="#555">195</text>
  <text x="397.3" y="194.0" text-anchor="middle" font-size="9" fill="#555">12/10</text>
  <text x="397.3" y="205.0" text-anchor="middle" font-size="9" fill="#555">수</text>
  <rect x="423.8" y="33.8" width="29.8" height="146.2" fill="#3d80b6" rx="2"/>
  <text x="438.7" y="29.8" text-anchor="middle" font-size="9" fill="#555">201</text>
  <text x="438.7" y="194.0" text-anchor="middle" font-size="9" fill="#555">12/11</text>
  <text x="438.7" y="205.0" text-anchor="middle" font-size="9" fill="#555">목</text>
  <rect x="465.1" y="54.2" width="29.8" height="125.8" fill="#3d80b6" rx="2"/>
  <text x="480.0" y="50.2" text-anchor="middle" font-size="9" fill="#555">173</text>
  <text x="480.0" y="194.0" text-anchor="middle" font-size="9" fill="#555">12/12</text>
  <text x="480.0" y="205.0" text-anchor="middle" font-size="9" fill="#555">금</text>
  <rect x="506.5" y="145.1" width="29.8" height="34.9" fill="#b0c8e0" rx="2"/>
  <text x="521.3" y="141.1" text-anchor="middle" font-size="9" fill="#7a9ab8">48</text>
  <text x="521.3" y="194.0" text-anchor="middle" font-size="9" fill="#7a9ab8">12/13</text>
  <text x="521.3" y="205.0" text-anchor="middle" font-size="9" fill="#7a9ab8">토</text>
  <rect x="547.8" y="146.5" width="29.8" height="33.5" fill="#b0c8e0" rx="2"/>
  <text x="562.7" y="142.5" text-anchor="middle" font-size="9" fill="#7a9ab8">46</text>
  <text x="562.7" y="194.0" text-anchor="middle" font-size="9" fill="#7a9ab8">12/14</text>
  <text x="562.7" y="205.0" text-anchor="middle" font-size="9" fill="#7a9ab8">일</text>
  <rect x="589.1" y="25.1" width="29.8" height="154.9" fill="#3d80b6" rx="2"/>
  <text x="604.0" y="21.1" text-anchor="middle" font-size="9" fill="#555">213</text>
  <text x="604.0" y="194.0" text-anchor="middle" font-size="9" fill="#555">12/15</text>
  <text x="604.0" y="205.0" text-anchor="middle" font-size="9" fill="#555">월</text>
  <rect x="630.5" y="91.3" width="29.8" height="88.7" fill="#3d80b6" rx="2"/>
  <text x="645.3" y="87.3" text-anchor="middle" font-size="9" fill="#555">122</text>
  <text x="645.3" y="194.0" text-anchor="middle" font-size="9" fill="#555">12/16</text>
  <text x="645.3" y="205.0" text-anchor="middle" font-size="9" fill="#555">화</text>
  <rect x="278" y="218" width="12" height="12" fill="#3d80b6" rx="2"/>
  <text x="294" y="228" font-size="10" fill="#555">평일</text>
  <rect x="330" y="218" width="12" height="12" fill="#b0c8e0" rx="2"/>
  <text x="346" y="228" font-size="10" fill="#555">주말</text>
  <text x="10" y="100" text-anchor="middle" font-size="10" fill="#888" transform="rotate(-90,10,100)">Full GC 수</text>
  <text x="338" y="246" text-anchor="middle" font-size="11" fill="#666">일별 Full GC 발생 횟수 (2025-12)</text>
</svg>