<svg viewBox="0 0 656 198" xmlns="http://www.w3.org/2000/svg" role="img" aria-label="시간대별 Full GC 발생 패턴">
  <rect width="656" height="198" fill="#f9fafb" rx="6"/>
  <rect x="221.0" y="20" width="100.0" height="140" fill="#fef3f3" rx="0"/>
  <rect x="371.0" y="20" width="100.0" height="140" fill="#fef3f3" rx="0"/>
  <line x1="46" y1="160.0" x2="646" y2="160.0" stroke="#dde" strokeWidth="1" strokeDasharray="3,3"/>
  <text x="42" y="164.0" text-anchor="end" font-size="10" fill="#888">0</text>
  <line x1="46" y1="110.0" x2="646" y2="110.0" stroke="#dde" strokeWidth="1" strokeDasharray="3,3"/>
  <text x="42" y="114.0" text-anchor="end" font-size="10" fill="#888">10</text>
  <line x1="46" y1="60.0" x2="646" y2="60.0" stroke="#dde" strokeWidth="1" strokeDasharray="3,3"/>
  <text x="42" y="64.0" text-anchor="end" font-size="10" fill="#888">20</text>
  <polyline points="58.5,144.5 83.5,156.0 108.5,156.0 133.5,156.0 158.5,156.0 183.5,156.0 208.5,156.0 233.5,106.0 258.5,32.0 283.5,67.0 308.5,91.5 333.5,96.0 358.5,112.5 383.5,112.5 408.5,77.0 433.5,82.0 458.5,125.5 483.5,120.5 508.5,135.0 533.5,151.5 558.5,153.5 583.5,153.5 608.5,153.5 633.5,137.0" fill="none" stroke="#e06060" strokeWidth="2" opacity="1.0"/>
  <polyline points="58.5,160.0 83.5,160.0 108.5,160.0 133.5,160.0 158.5,160.0 183.5,160.0 208.5,160.0 233.5,160.0 258.5,145.0 283.5,152.5 308.5,154.0 333.5,155.0 358.5,156.0 383.5,156.0 408.5,154.0 433.5,155.0 458.5,157.5 483.5,158.5 508.5,159.0 533.5,159.5 558.5,159.5 583.5,159.5 608.5,159.5 633.5,157.5" fill="none" stroke="#80a8d0" strokeWidth="2" opacity="1.0"/>
  <text x="58.5" y="174.0" text-anchor="middle" font-size="9" fill="#666">00</text>
  <text x="108.5" y="174.0" text-anchor="middle" font-size="9" fill="#666">02</text>
  <text x="158.5" y="174.0" text-anchor="middle" font-size="9" fill="#666">04</text>
  <text x="208.5" y="174.0" text-anchor="middle" font-size="9" fill="#666">06</text>
  <text x="258.5" y="174.0" text-anchor="middle" font-size="9" fill="#666">08</text>
  <text x="308.5" y="174.0" text-anchor="middle" font-size="9" fill="#666">10</text>
  <text x="358.5" y="174.0" text-anchor="middle" font-size="9" fill="#666">12</text>
  <text x="408.5" y="174.0" text-anchor="middle" font-size="9" fill="#666">14</text>
  <text x="458.5" y="174.0" text-anchor="middle" font-size="9" fill="#666">16</text>
  <text x="508.5" y="174.0" text-anchor="middle" font-size="9" fill="#666">18</text>
  <text x="558.5" y="174.0" text-anchor="middle" font-size="9" fill="#666">20</text>
  <text x="608.5" y="174.0" text-anchor="middle" font-size="9" fill="#666">22</text>
  <line x1="476" y1="31" x2="496" y2="31" stroke="#e06060" strokeWidth="2"/>
  <text x="500" y="35" font-size="10" fill="#555">평일 평균</text>
  <line x1="560" y1="31" x2="580" y2="31" stroke="#80a8d0" strokeWidth="2"/>
  <text x="584" y="35" font-size="10" fill="#555">주말 평균</text>
  <text x="258.5" y="24.0" text-anchor="middle" font-size="9" fill="#c04040">Max 25.6</text>
  <text x="10" y="90" text-anchor="middle" font-size="10" fill="#888" transform="rotate(-90,10,90)">시간당 Full GC</text>
  <text x="328" y="193" text-anchor="middle" font-size="11" fill="#666">시간대별 Full GC 발생 패턴 (평일 vs 주말)</text>
</svg>